<svg xmlns="http://www.w3.org/2000/svg" width="18.215" height="18.215" viewBox="0 0 18.215 18.215">
  <g id="Group_39077" data-name="Group 39077" transform="translate(-42.667 -42.667)">
    <path id="Path_41427" data-name="Path 41427" d="M59.971,52.685a.911.911,0,0,0-.911.911v2.732a2.732,2.732,0,0,1-2.732,2.732H47.221a2.732,2.732,0,0,1-2.732-2.732V47.221a2.732,2.732,0,0,1,2.732-2.732h4.554a.911.911,0,1,0,0-1.821H47.221a4.559,4.559,0,0,0-4.554,4.554v9.108a4.559,4.559,0,0,0,4.554,4.554h9.108a4.559,4.559,0,0,0,4.554-4.554V53.6A.911.911,0,0,0,59.971,52.685Z" fill="#226d96"/>
    <path id="Path_41428" data-name="Path 41428" d="M148.615,73.229a.911.911,0,0,0,.756.77.882.882,0,0,0,.146.012.911.911,0,0,0,.815-.5c1.13-2.261,4.138-2.4,5.56-2.312V73.1a.911.911,0,0,0,1.555.644L162,69.189a.911.911,0,0,0-.075-1.355l-4.554-3.643a.911.911,0,0,0-1.48.711v1.747c-2.55-.119-4.5.487-5.775,1.8a6.125,6.125,0,0,0-1.5,4.777Z" transform="translate(-101.385 -20.414)" fill="#226d96"/>
  </g>
</svg>
